<mxfile host="app.diagrams.net" modified="2023-07-18T14:38:10.155Z" agent="Mozilla/5.0 (Windows NT 10.0; Win64; x64) AppleWebKit/537.36 (KHTML, like Gecko) Chrome/114.0.0.0 Safari/537.36" etag="PRf3gHJvSvBSfL0qqbCh" version="21.6.2" type="github">
  <diagram name="Сторінка-1" id="xfX3gdP3Wqh5GX3Ggk49">
    <mxGraphModel dx="2625" dy="1453" grid="1" gridSize="10" guides="1" tooltips="1" connect="1" arrows="1" fold="1" page="1" pageScale="1" pageWidth="827" pageHeight="1169" math="0" shadow="0">
      <root>
        <mxCell id="0" />
        <mxCell id="1" parent="0" />
        <mxCell id="lOXED6V6MMa4JPegtHZu-1" value="" style="rounded=0;whiteSpace=wrap;html=1;" vertex="1" parent="1">
          <mxGeometry x="30" width="770" height="60" as="geometry" />
        </mxCell>
        <mxCell id="lOXED6V6MMa4JPegtHZu-4" value="" style="group" vertex="1" connectable="0" parent="1">
          <mxGeometry x="30" y="90" width="490" height="30" as="geometry" />
        </mxCell>
        <mxCell id="lOXED6V6MMa4JPegtHZu-2" value="Назва транзакції" style="text;html=1;strokeColor=none;fillColor=none;align=center;verticalAlign=middle;whiteSpace=wrap;rounded=0;" vertex="1" parent="lOXED6V6MMa4JPegtHZu-4">
          <mxGeometry width="60" height="30" as="geometry" />
        </mxCell>
        <mxCell id="lOXED6V6MMa4JPegtHZu-3" value="" style="rounded=0;whiteSpace=wrap;html=1;" vertex="1" parent="lOXED6V6MMa4JPegtHZu-4">
          <mxGeometry x="80" width="410" height="30" as="geometry" />
        </mxCell>
        <mxCell id="lOXED6V6MMa4JPegtHZu-11" value="" style="rounded=1;whiteSpace=wrap;html=1;" vertex="1" parent="1">
          <mxGeometry x="265" y="260" width="100" height="40" as="geometry" />
        </mxCell>
        <mxCell id="lOXED6V6MMa4JPegtHZu-17" value="&lt;b&gt;&lt;font style=&quot;font-size: 24px;&quot;&gt;Знайти транзакцію&lt;/font&gt;&lt;/b&gt;" style="text;html=1;strokeColor=none;fillColor=none;align=center;verticalAlign=middle;whiteSpace=wrap;rounded=0;" vertex="1" parent="1">
          <mxGeometry x="190" y="320" width="450" height="70" as="geometry" />
        </mxCell>
        <mxCell id="lOXED6V6MMa4JPegtHZu-6" value="Сума" style="text;html=1;strokeColor=none;fillColor=none;align=center;verticalAlign=middle;whiteSpace=wrap;rounded=0;" vertex="1" parent="1">
          <mxGeometry x="30" y="150" width="60" height="30" as="geometry" />
        </mxCell>
        <mxCell id="lOXED6V6MMa4JPegtHZu-7" value="" style="rounded=0;whiteSpace=wrap;html=1;" vertex="1" parent="1">
          <mxGeometry x="110" y="140" width="170" height="30" as="geometry" />
        </mxCell>
        <mxCell id="lOXED6V6MMa4JPegtHZu-9" value="Тип" style="text;html=1;strokeColor=none;fillColor=none;align=center;verticalAlign=middle;whiteSpace=wrap;rounded=0;" vertex="1" parent="1">
          <mxGeometry x="30" y="210" width="60" height="30" as="geometry" />
        </mxCell>
        <mxCell id="lOXED6V6MMa4JPegtHZu-18" value="" style="rounded=1;whiteSpace=wrap;html=1;" vertex="1" parent="1">
          <mxGeometry x="110" y="190" width="120" height="45" as="geometry" />
        </mxCell>
        <mxCell id="lOXED6V6MMa4JPegtHZu-23" value="" style="group" vertex="1" connectable="0" parent="1">
          <mxGeometry x="550" y="77.5" width="240" height="182.5" as="geometry" />
        </mxCell>
        <mxCell id="lOXED6V6MMa4JPegtHZu-13" value="" style="rounded=1;whiteSpace=wrap;html=1;" vertex="1" parent="lOXED6V6MMa4JPegtHZu-23">
          <mxGeometry width="240" height="182.5" as="geometry" />
        </mxCell>
        <mxCell id="lOXED6V6MMa4JPegtHZu-14" value="Баланс: 0000" style="text;html=1;strokeColor=none;fillColor=none;align=center;verticalAlign=middle;whiteSpace=wrap;rounded=0;" vertex="1" parent="lOXED6V6MMa4JPegtHZu-23">
          <mxGeometry x="55" y="15.642857142857144" width="130" height="41.714285714285715" as="geometry" />
        </mxCell>
        <mxCell id="lOXED6V6MMa4JPegtHZu-15" value="Дохід: 0000" style="text;html=1;strokeColor=none;fillColor=none;align=center;verticalAlign=middle;whiteSpace=wrap;rounded=0;" vertex="1" parent="lOXED6V6MMa4JPegtHZu-23">
          <mxGeometry x="55" y="67.78571428571429" width="130" height="41.714285714285715" as="geometry" />
        </mxCell>
        <mxCell id="lOXED6V6MMa4JPegtHZu-16" value="Витрати: 0000" style="text;html=1;strokeColor=none;fillColor=none;align=center;verticalAlign=middle;whiteSpace=wrap;rounded=0;" vertex="1" parent="lOXED6V6MMa4JPegtHZu-23">
          <mxGeometry x="55" y="119.92857142857143" width="130" height="41.714285714285715" as="geometry" />
        </mxCell>
        <mxCell id="lOXED6V6MMa4JPegtHZu-29" value="" style="rounded=0;whiteSpace=wrap;html=1;" vertex="1" parent="1">
          <mxGeometry x="29" y="450" width="770" height="820" as="geometry" />
        </mxCell>
        <mxCell id="lOXED6V6MMa4JPegtHZu-30" value="" style="group" vertex="1" connectable="0" parent="1">
          <mxGeometry x="28" y="390" width="771" height="40" as="geometry" />
        </mxCell>
        <mxCell id="lOXED6V6MMa4JPegtHZu-24" value="" style="rounded=1;whiteSpace=wrap;html=1;" vertex="1" parent="lOXED6V6MMa4JPegtHZu-30">
          <mxGeometry width="770" height="40" as="geometry" />
        </mxCell>
        <mxCell id="lOXED6V6MMa4JPegtHZu-25" value="" style="rounded=0;whiteSpace=wrap;html=1;" vertex="1" parent="lOXED6V6MMa4JPegtHZu-30">
          <mxGeometry width="120" height="40" as="geometry" />
        </mxCell>
        <mxCell id="lOXED6V6MMa4JPegtHZu-26" value="" style="rounded=0;whiteSpace=wrap;html=1;" vertex="1" parent="lOXED6V6MMa4JPegtHZu-30">
          <mxGeometry x="731" width="40" height="40" as="geometry" />
        </mxCell>
        <mxCell id="lOXED6V6MMa4JPegtHZu-32" value="" style="rounded=1;whiteSpace=wrap;html=1;" vertex="1" parent="1">
          <mxGeometry x="560" y="480" width="210" height="240" as="geometry" />
        </mxCell>
        <mxCell id="lOXED6V6MMa4JPegtHZu-33" value="" style="rounded=1;whiteSpace=wrap;html=1;" vertex="1" parent="1">
          <mxGeometry x="310" y="480" width="210" height="240" as="geometry" />
        </mxCell>
        <mxCell id="lOXED6V6MMa4JPegtHZu-34" value="" style="rounded=1;whiteSpace=wrap;html=1;" vertex="1" parent="1">
          <mxGeometry x="60" y="740" width="210" height="240" as="geometry" />
        </mxCell>
        <mxCell id="lOXED6V6MMa4JPegtHZu-35" value="" style="rounded=1;whiteSpace=wrap;html=1;" vertex="1" parent="1">
          <mxGeometry x="310" y="740" width="210" height="240" as="geometry" />
        </mxCell>
        <mxCell id="lOXED6V6MMa4JPegtHZu-36" value="" style="rounded=1;whiteSpace=wrap;html=1;" vertex="1" parent="1">
          <mxGeometry x="560" y="740" width="210" height="240" as="geometry" />
        </mxCell>
        <mxCell id="lOXED6V6MMa4JPegtHZu-37" value="" style="rounded=1;whiteSpace=wrap;html=1;" vertex="1" parent="1">
          <mxGeometry x="560" y="1000" width="210" height="240" as="geometry" />
        </mxCell>
        <mxCell id="lOXED6V6MMa4JPegtHZu-38" value="" style="rounded=1;whiteSpace=wrap;html=1;" vertex="1" parent="1">
          <mxGeometry x="309" y="1000" width="210" height="240" as="geometry" />
        </mxCell>
        <mxCell id="lOXED6V6MMa4JPegtHZu-39" value="" style="rounded=1;whiteSpace=wrap;html=1;" vertex="1" parent="1">
          <mxGeometry x="60" y="1000" width="210" height="240" as="geometry" />
        </mxCell>
        <mxCell id="lOXED6V6MMa4JPegtHZu-48" value="" style="group" vertex="1" connectable="0" parent="1">
          <mxGeometry x="80" y="1010" width="180" height="210" as="geometry" />
        </mxCell>
        <mxCell id="lOXED6V6MMa4JPegtHZu-49" value="&lt;font style=&quot;font-size: 21px;&quot;&gt;&lt;b&gt;Text&lt;/b&gt;&lt;/font&gt;" style="text;html=1;strokeColor=none;fillColor=none;align=center;verticalAlign=middle;whiteSpace=wrap;rounded=0;" vertex="1" parent="lOXED6V6MMa4JPegtHZu-48">
          <mxGeometry x="10" width="150" height="50" as="geometry" />
        </mxCell>
        <mxCell id="lOXED6V6MMa4JPegtHZu-50" value="&lt;font style=&quot;font-size: 18px;&quot;&gt;&lt;b&gt;Сума&lt;/b&gt; &lt;i&gt;0000&lt;/i&gt;&lt;/font&gt;" style="text;html=1;strokeColor=none;fillColor=none;align=center;verticalAlign=middle;whiteSpace=wrap;rounded=0;" vertex="1" parent="lOXED6V6MMa4JPegtHZu-48">
          <mxGeometry x="55" y="55" width="60" height="40" as="geometry" />
        </mxCell>
        <mxCell id="lOXED6V6MMa4JPegtHZu-51" value="&lt;font style=&quot;font-size: 18px;&quot;&gt;&lt;b&gt;Тип &lt;/b&gt;&lt;i&gt;Дохід&lt;/i&gt;&lt;/font&gt;" style="text;html=1;strokeColor=none;fillColor=none;align=center;verticalAlign=middle;whiteSpace=wrap;rounded=0;" vertex="1" parent="lOXED6V6MMa4JPegtHZu-48">
          <mxGeometry x="55" y="110" width="60" height="45" as="geometry" />
        </mxCell>
        <mxCell id="lOXED6V6MMa4JPegtHZu-52" value="" style="rounded=1;whiteSpace=wrap;html=1;" vertex="1" parent="lOXED6V6MMa4JPegtHZu-48">
          <mxGeometry y="170" width="70" height="40" as="geometry" />
        </mxCell>
        <mxCell id="lOXED6V6MMa4JPegtHZu-53" value="" style="rounded=1;whiteSpace=wrap;html=1;" vertex="1" parent="lOXED6V6MMa4JPegtHZu-48">
          <mxGeometry x="82.5" y="170" width="97.5" height="40" as="geometry" />
        </mxCell>
        <mxCell id="lOXED6V6MMa4JPegtHZu-54" value="" style="group" vertex="1" connectable="0" parent="1">
          <mxGeometry x="323.5" y="495" width="180" height="210" as="geometry" />
        </mxCell>
        <mxCell id="lOXED6V6MMa4JPegtHZu-55" value="&lt;font style=&quot;font-size: 21px;&quot;&gt;&lt;b&gt;Text&lt;/b&gt;&lt;/font&gt;" style="text;html=1;strokeColor=none;fillColor=none;align=center;verticalAlign=middle;whiteSpace=wrap;rounded=0;" vertex="1" parent="lOXED6V6MMa4JPegtHZu-54">
          <mxGeometry x="10" width="150" height="50" as="geometry" />
        </mxCell>
        <mxCell id="lOXED6V6MMa4JPegtHZu-56" value="&lt;font style=&quot;font-size: 18px;&quot;&gt;&lt;b&gt;Сума&lt;/b&gt; &lt;i&gt;0000&lt;/i&gt;&lt;/font&gt;" style="text;html=1;strokeColor=none;fillColor=none;align=center;verticalAlign=middle;whiteSpace=wrap;rounded=0;" vertex="1" parent="lOXED6V6MMa4JPegtHZu-54">
          <mxGeometry x="55" y="55" width="60" height="40" as="geometry" />
        </mxCell>
        <mxCell id="lOXED6V6MMa4JPegtHZu-57" value="&lt;font style=&quot;font-size: 18px;&quot;&gt;&lt;b&gt;Тип &lt;/b&gt;&lt;i&gt;Дохід&lt;/i&gt;&lt;/font&gt;" style="text;html=1;strokeColor=none;fillColor=none;align=center;verticalAlign=middle;whiteSpace=wrap;rounded=0;" vertex="1" parent="lOXED6V6MMa4JPegtHZu-54">
          <mxGeometry x="55" y="110" width="60" height="45" as="geometry" />
        </mxCell>
        <mxCell id="lOXED6V6MMa4JPegtHZu-58" value="" style="rounded=1;whiteSpace=wrap;html=1;" vertex="1" parent="lOXED6V6MMa4JPegtHZu-54">
          <mxGeometry y="170" width="70" height="40" as="geometry" />
        </mxCell>
        <mxCell id="lOXED6V6MMa4JPegtHZu-59" value="" style="rounded=1;whiteSpace=wrap;html=1;" vertex="1" parent="lOXED6V6MMa4JPegtHZu-54">
          <mxGeometry x="82.5" y="170" width="97.5" height="40" as="geometry" />
        </mxCell>
        <mxCell id="lOXED6V6MMa4JPegtHZu-60" value="" style="group" vertex="1" connectable="0" parent="1">
          <mxGeometry x="580" y="750" width="180" height="210" as="geometry" />
        </mxCell>
        <mxCell id="lOXED6V6MMa4JPegtHZu-61" value="&lt;font style=&quot;font-size: 21px;&quot;&gt;&lt;b&gt;Text&lt;/b&gt;&lt;/font&gt;" style="text;html=1;strokeColor=none;fillColor=none;align=center;verticalAlign=middle;whiteSpace=wrap;rounded=0;" vertex="1" parent="lOXED6V6MMa4JPegtHZu-60">
          <mxGeometry x="10" width="150" height="50" as="geometry" />
        </mxCell>
        <mxCell id="lOXED6V6MMa4JPegtHZu-62" value="&lt;font style=&quot;font-size: 18px;&quot;&gt;&lt;b&gt;Сума&lt;/b&gt; &lt;i&gt;0000&lt;/i&gt;&lt;/font&gt;" style="text;html=1;strokeColor=none;fillColor=none;align=center;verticalAlign=middle;whiteSpace=wrap;rounded=0;" vertex="1" parent="lOXED6V6MMa4JPegtHZu-60">
          <mxGeometry x="55" y="55" width="60" height="40" as="geometry" />
        </mxCell>
        <mxCell id="lOXED6V6MMa4JPegtHZu-63" value="&lt;font style=&quot;font-size: 18px;&quot;&gt;&lt;b&gt;Тип &lt;/b&gt;&lt;i&gt;Дохід&lt;/i&gt;&lt;/font&gt;" style="text;html=1;strokeColor=none;fillColor=none;align=center;verticalAlign=middle;whiteSpace=wrap;rounded=0;" vertex="1" parent="lOXED6V6MMa4JPegtHZu-60">
          <mxGeometry x="55" y="110" width="60" height="45" as="geometry" />
        </mxCell>
        <mxCell id="lOXED6V6MMa4JPegtHZu-64" value="" style="rounded=1;whiteSpace=wrap;html=1;" vertex="1" parent="lOXED6V6MMa4JPegtHZu-60">
          <mxGeometry y="170" width="70" height="40" as="geometry" />
        </mxCell>
        <mxCell id="lOXED6V6MMa4JPegtHZu-65" value="" style="rounded=1;whiteSpace=wrap;html=1;" vertex="1" parent="lOXED6V6MMa4JPegtHZu-60">
          <mxGeometry x="82.5" y="170" width="97.5" height="40" as="geometry" />
        </mxCell>
        <mxCell id="lOXED6V6MMa4JPegtHZu-66" value="" style="group" vertex="1" connectable="0" parent="1">
          <mxGeometry x="325" y="750" width="180" height="210" as="geometry" />
        </mxCell>
        <mxCell id="lOXED6V6MMa4JPegtHZu-67" value="&lt;font style=&quot;font-size: 21px;&quot;&gt;&lt;b&gt;Text&lt;/b&gt;&lt;/font&gt;" style="text;html=1;strokeColor=none;fillColor=none;align=center;verticalAlign=middle;whiteSpace=wrap;rounded=0;" vertex="1" parent="lOXED6V6MMa4JPegtHZu-66">
          <mxGeometry x="10" width="150" height="50" as="geometry" />
        </mxCell>
        <mxCell id="lOXED6V6MMa4JPegtHZu-68" value="&lt;font style=&quot;font-size: 18px;&quot;&gt;&lt;b&gt;Сума&lt;/b&gt; &lt;i&gt;0000&lt;/i&gt;&lt;/font&gt;" style="text;html=1;strokeColor=none;fillColor=none;align=center;verticalAlign=middle;whiteSpace=wrap;rounded=0;" vertex="1" parent="lOXED6V6MMa4JPegtHZu-66">
          <mxGeometry x="55" y="55" width="60" height="40" as="geometry" />
        </mxCell>
        <mxCell id="lOXED6V6MMa4JPegtHZu-69" value="&lt;font style=&quot;font-size: 18px;&quot;&gt;&lt;b&gt;Тип &lt;/b&gt;&lt;i&gt;Дохід&lt;/i&gt;&lt;/font&gt;" style="text;html=1;strokeColor=none;fillColor=none;align=center;verticalAlign=middle;whiteSpace=wrap;rounded=0;" vertex="1" parent="lOXED6V6MMa4JPegtHZu-66">
          <mxGeometry x="55" y="110" width="60" height="45" as="geometry" />
        </mxCell>
        <mxCell id="lOXED6V6MMa4JPegtHZu-70" value="" style="rounded=1;whiteSpace=wrap;html=1;" vertex="1" parent="lOXED6V6MMa4JPegtHZu-66">
          <mxGeometry y="170" width="70" height="40" as="geometry" />
        </mxCell>
        <mxCell id="lOXED6V6MMa4JPegtHZu-71" value="" style="rounded=1;whiteSpace=wrap;html=1;" vertex="1" parent="lOXED6V6MMa4JPegtHZu-66">
          <mxGeometry x="82.5" y="170" width="97.5" height="40" as="geometry" />
        </mxCell>
        <mxCell id="lOXED6V6MMa4JPegtHZu-72" value="" style="group" vertex="1" connectable="0" parent="1">
          <mxGeometry x="80" y="750" width="180" height="210" as="geometry" />
        </mxCell>
        <mxCell id="lOXED6V6MMa4JPegtHZu-73" value="&lt;font style=&quot;font-size: 21px;&quot;&gt;&lt;b&gt;Text&lt;/b&gt;&lt;/font&gt;" style="text;html=1;strokeColor=none;fillColor=none;align=center;verticalAlign=middle;whiteSpace=wrap;rounded=0;" vertex="1" parent="lOXED6V6MMa4JPegtHZu-72">
          <mxGeometry x="10" width="150" height="50" as="geometry" />
        </mxCell>
        <mxCell id="lOXED6V6MMa4JPegtHZu-74" value="&lt;font style=&quot;font-size: 18px;&quot;&gt;&lt;b&gt;Сума&lt;/b&gt; &lt;i&gt;0000&lt;/i&gt;&lt;/font&gt;" style="text;html=1;strokeColor=none;fillColor=none;align=center;verticalAlign=middle;whiteSpace=wrap;rounded=0;" vertex="1" parent="lOXED6V6MMa4JPegtHZu-72">
          <mxGeometry x="55" y="55" width="60" height="40" as="geometry" />
        </mxCell>
        <mxCell id="lOXED6V6MMa4JPegtHZu-75" value="&lt;font style=&quot;font-size: 18px;&quot;&gt;&lt;b&gt;Тип &lt;/b&gt;&lt;i&gt;Дохід&lt;/i&gt;&lt;/font&gt;" style="text;html=1;strokeColor=none;fillColor=none;align=center;verticalAlign=middle;whiteSpace=wrap;rounded=0;" vertex="1" parent="lOXED6V6MMa4JPegtHZu-72">
          <mxGeometry x="55" y="110" width="60" height="45" as="geometry" />
        </mxCell>
        <mxCell id="lOXED6V6MMa4JPegtHZu-76" value="" style="rounded=1;whiteSpace=wrap;html=1;" vertex="1" parent="lOXED6V6MMa4JPegtHZu-72">
          <mxGeometry y="170" width="70" height="40" as="geometry" />
        </mxCell>
        <mxCell id="lOXED6V6MMa4JPegtHZu-77" value="" style="rounded=1;whiteSpace=wrap;html=1;" vertex="1" parent="lOXED6V6MMa4JPegtHZu-72">
          <mxGeometry x="82.5" y="170" width="97.5" height="40" as="geometry" />
        </mxCell>
        <mxCell id="lOXED6V6MMa4JPegtHZu-78" value="" style="group" vertex="1" connectable="0" parent="1">
          <mxGeometry x="580" y="490" width="180" height="210" as="geometry" />
        </mxCell>
        <mxCell id="lOXED6V6MMa4JPegtHZu-79" value="&lt;font style=&quot;font-size: 21px;&quot;&gt;&lt;b&gt;Text&lt;/b&gt;&lt;/font&gt;" style="text;html=1;strokeColor=none;fillColor=none;align=center;verticalAlign=middle;whiteSpace=wrap;rounded=0;" vertex="1" parent="lOXED6V6MMa4JPegtHZu-78">
          <mxGeometry x="10" width="150" height="50" as="geometry" />
        </mxCell>
        <mxCell id="lOXED6V6MMa4JPegtHZu-80" value="&lt;font style=&quot;font-size: 18px;&quot;&gt;&lt;b&gt;Сума&lt;/b&gt; &lt;i&gt;0000&lt;/i&gt;&lt;/font&gt;" style="text;html=1;strokeColor=none;fillColor=none;align=center;verticalAlign=middle;whiteSpace=wrap;rounded=0;" vertex="1" parent="lOXED6V6MMa4JPegtHZu-78">
          <mxGeometry x="55" y="55" width="60" height="40" as="geometry" />
        </mxCell>
        <mxCell id="lOXED6V6MMa4JPegtHZu-81" value="&lt;font style=&quot;font-size: 18px;&quot;&gt;&lt;b&gt;Тип &lt;/b&gt;&lt;i&gt;Дохід&lt;/i&gt;&lt;/font&gt;" style="text;html=1;strokeColor=none;fillColor=none;align=center;verticalAlign=middle;whiteSpace=wrap;rounded=0;" vertex="1" parent="lOXED6V6MMa4JPegtHZu-78">
          <mxGeometry x="55" y="110" width="60" height="45" as="geometry" />
        </mxCell>
        <mxCell id="lOXED6V6MMa4JPegtHZu-82" value="" style="rounded=1;whiteSpace=wrap;html=1;" vertex="1" parent="lOXED6V6MMa4JPegtHZu-78">
          <mxGeometry y="170" width="70" height="40" as="geometry" />
        </mxCell>
        <mxCell id="lOXED6V6MMa4JPegtHZu-83" value="" style="rounded=1;whiteSpace=wrap;html=1;" vertex="1" parent="lOXED6V6MMa4JPegtHZu-78">
          <mxGeometry x="82.5" y="170" width="97.5" height="40" as="geometry" />
        </mxCell>
        <mxCell id="lOXED6V6MMa4JPegtHZu-84" value="" style="group" vertex="1" connectable="0" parent="1">
          <mxGeometry x="580" y="1010" width="180" height="210" as="geometry" />
        </mxCell>
        <mxCell id="lOXED6V6MMa4JPegtHZu-85" value="&lt;font style=&quot;font-size: 21px;&quot;&gt;&lt;b&gt;Text&lt;/b&gt;&lt;/font&gt;" style="text;html=1;strokeColor=none;fillColor=none;align=center;verticalAlign=middle;whiteSpace=wrap;rounded=0;" vertex="1" parent="lOXED6V6MMa4JPegtHZu-84">
          <mxGeometry x="10" width="150" height="50" as="geometry" />
        </mxCell>
        <mxCell id="lOXED6V6MMa4JPegtHZu-86" value="&lt;font style=&quot;font-size: 18px;&quot;&gt;&lt;b&gt;Сума&lt;/b&gt; &lt;i&gt;0000&lt;/i&gt;&lt;/font&gt;" style="text;html=1;strokeColor=none;fillColor=none;align=center;verticalAlign=middle;whiteSpace=wrap;rounded=0;" vertex="1" parent="lOXED6V6MMa4JPegtHZu-84">
          <mxGeometry x="55" y="55" width="60" height="40" as="geometry" />
        </mxCell>
        <mxCell id="lOXED6V6MMa4JPegtHZu-87" value="&lt;font style=&quot;font-size: 18px;&quot;&gt;&lt;b&gt;Тип &lt;/b&gt;&lt;i&gt;Дохід&lt;/i&gt;&lt;/font&gt;" style="text;html=1;strokeColor=none;fillColor=none;align=center;verticalAlign=middle;whiteSpace=wrap;rounded=0;" vertex="1" parent="lOXED6V6MMa4JPegtHZu-84">
          <mxGeometry x="55" y="110" width="60" height="45" as="geometry" />
        </mxCell>
        <mxCell id="lOXED6V6MMa4JPegtHZu-88" value="" style="rounded=1;whiteSpace=wrap;html=1;" vertex="1" parent="lOXED6V6MMa4JPegtHZu-84">
          <mxGeometry y="170" width="70" height="40" as="geometry" />
        </mxCell>
        <mxCell id="lOXED6V6MMa4JPegtHZu-89" value="" style="rounded=1;whiteSpace=wrap;html=1;" vertex="1" parent="lOXED6V6MMa4JPegtHZu-84">
          <mxGeometry x="82.5" y="170" width="97.5" height="40" as="geometry" />
        </mxCell>
        <mxCell id="lOXED6V6MMa4JPegtHZu-90" value="" style="group" vertex="1" connectable="0" parent="1">
          <mxGeometry x="330" y="1010" width="180" height="210" as="geometry" />
        </mxCell>
        <mxCell id="lOXED6V6MMa4JPegtHZu-91" value="&lt;font style=&quot;font-size: 21px;&quot;&gt;&lt;b&gt;Text&lt;/b&gt;&lt;/font&gt;" style="text;html=1;strokeColor=none;fillColor=none;align=center;verticalAlign=middle;whiteSpace=wrap;rounded=0;" vertex="1" parent="lOXED6V6MMa4JPegtHZu-90">
          <mxGeometry x="10" width="150" height="50" as="geometry" />
        </mxCell>
        <mxCell id="lOXED6V6MMa4JPegtHZu-92" value="&lt;font style=&quot;font-size: 18px;&quot;&gt;&lt;b&gt;Сума&lt;/b&gt; &lt;i&gt;0000&lt;/i&gt;&lt;/font&gt;" style="text;html=1;strokeColor=none;fillColor=none;align=center;verticalAlign=middle;whiteSpace=wrap;rounded=0;" vertex="1" parent="lOXED6V6MMa4JPegtHZu-90">
          <mxGeometry x="55" y="55" width="60" height="40" as="geometry" />
        </mxCell>
        <mxCell id="lOXED6V6MMa4JPegtHZu-93" value="&lt;font style=&quot;font-size: 18px;&quot;&gt;&lt;b&gt;Тип &lt;/b&gt;&lt;i&gt;Дохід&lt;/i&gt;&lt;/font&gt;" style="text;html=1;strokeColor=none;fillColor=none;align=center;verticalAlign=middle;whiteSpace=wrap;rounded=0;" vertex="1" parent="lOXED6V6MMa4JPegtHZu-90">
          <mxGeometry x="55" y="110" width="60" height="45" as="geometry" />
        </mxCell>
        <mxCell id="lOXED6V6MMa4JPegtHZu-94" value="" style="rounded=1;whiteSpace=wrap;html=1;" vertex="1" parent="lOXED6V6MMa4JPegtHZu-90">
          <mxGeometry y="170" width="70" height="40" as="geometry" />
        </mxCell>
        <mxCell id="lOXED6V6MMa4JPegtHZu-95" value="" style="rounded=1;whiteSpace=wrap;html=1;" vertex="1" parent="lOXED6V6MMa4JPegtHZu-90">
          <mxGeometry x="82.5" y="170" width="97.5" height="40" as="geometry" />
        </mxCell>
        <mxCell id="lOXED6V6MMa4JPegtHZu-96" value="" style="group" vertex="1" connectable="0" parent="1">
          <mxGeometry x="60" y="480" width="210" height="240" as="geometry" />
        </mxCell>
        <mxCell id="lOXED6V6MMa4JPegtHZu-31" value="" style="rounded=1;whiteSpace=wrap;html=1;" vertex="1" parent="lOXED6V6MMa4JPegtHZu-96">
          <mxGeometry width="210" height="240" as="geometry" />
        </mxCell>
        <mxCell id="lOXED6V6MMa4JPegtHZu-47" value="" style="group" vertex="1" connectable="0" parent="lOXED6V6MMa4JPegtHZu-96">
          <mxGeometry x="20" y="10" width="180" height="210" as="geometry" />
        </mxCell>
        <mxCell id="lOXED6V6MMa4JPegtHZu-40" value="&lt;font style=&quot;font-size: 21px;&quot;&gt;&lt;b&gt;Назва транзакції&lt;/b&gt;&lt;/font&gt;" style="text;html=1;strokeColor=none;fillColor=none;align=center;verticalAlign=middle;whiteSpace=wrap;rounded=0;" vertex="1" parent="lOXED6V6MMa4JPegtHZu-47">
          <mxGeometry x="10" width="150" height="50" as="geometry" />
        </mxCell>
        <mxCell id="lOXED6V6MMa4JPegtHZu-41" value="&lt;font style=&quot;font-size: 18px;&quot;&gt;&lt;b&gt;Сума&lt;/b&gt; &lt;i&gt;0000&lt;/i&gt;&lt;/font&gt;" style="text;html=1;strokeColor=none;fillColor=none;align=center;verticalAlign=middle;whiteSpace=wrap;rounded=0;" vertex="1" parent="lOXED6V6MMa4JPegtHZu-47">
          <mxGeometry x="55" y="55" width="60" height="40" as="geometry" />
        </mxCell>
        <mxCell id="lOXED6V6MMa4JPegtHZu-43" value="&lt;font style=&quot;font-size: 18px;&quot;&gt;&lt;b&gt;Тип &lt;/b&gt;&lt;i&gt;Дохід&lt;/i&gt;&lt;/font&gt;" style="text;html=1;strokeColor=none;fillColor=none;align=center;verticalAlign=middle;whiteSpace=wrap;rounded=0;" vertex="1" parent="lOXED6V6MMa4JPegtHZu-47">
          <mxGeometry x="55" y="110" width="60" height="45" as="geometry" />
        </mxCell>
        <mxCell id="lOXED6V6MMa4JPegtHZu-45" value="" style="rounded=1;whiteSpace=wrap;html=1;" vertex="1" parent="lOXED6V6MMa4JPegtHZu-47">
          <mxGeometry y="170" width="70" height="40" as="geometry" />
        </mxCell>
        <mxCell id="lOXED6V6MMa4JPegtHZu-46" value="" style="rounded=1;whiteSpace=wrap;html=1;" vertex="1" parent="lOXED6V6MMa4JPegtHZu-47">
          <mxGeometry x="82.5" y="170" width="97.5" height="40" as="geometry" />
        </mxCell>
        <mxCell id="lOXED6V6MMa4JPegtHZu-97" value="" style="rounded=0;whiteSpace=wrap;html=1;" vertex="1" parent="1">
          <mxGeometry x="30" y="1320" width="771" height="190" as="geometry" />
        </mxCell>
        <mxCell id="lOXED6V6MMa4JPegtHZu-98" value="" style="shape=singleArrow;direction=west;whiteSpace=wrap;html=1;" vertex="1" parent="1">
          <mxGeometry x="200" y="1280" width="50" height="30" as="geometry" />
        </mxCell>
        <mxCell id="lOXED6V6MMa4JPegtHZu-102" value="" style="shape=singleArrow;direction=west;whiteSpace=wrap;html=1;rotation=-180;" vertex="1" parent="1">
          <mxGeometry x="550" y="1280" width="50" height="30" as="geometry" />
        </mxCell>
      </root>
    </mxGraphModel>
  </diagram>
</mxfile>
